<svg xmlns="http://www.w3.org/2000/svg" width="720" height="432" viewBox="0 0 720 432" font-family="Menlo, 'DejaVu Sans Mono', 'Hiragino Sans GB', 'Noto Sans CJK SC', 'PingFang SC', monospace" font-size="15">
<title>XueFu: activity-all</title>
<rect x="0" y="0" width="9" height="18" fill="#14141c"/>
<rect x="9" y="0" width="36" height="18" fill="#14141c"/>
<text x="9 27" y="14" fill="#c1121f" font-weight="bold">血符</text>
<rect x="45" y="0" width="54" height="18" fill="#14141c"/>
<text x="54 63 72 81 90" y="14" fill="#ffffff" font-weight="bold">XUEFU</text>
<rect x="99" y="0" width="45" height="18" fill="#14141c"/>
<text x="117" y="14" fill="#4a4740">│</text>
<rect x="144" y="0" width="108" height="18" fill="#14141c"/>
<text x="144 153 171 180 189 198 207 216 225 234 243" y="14" fill="#8a8578">Noworkspace</text>
<rect x="252" y="0" width="297" height="18" fill="#14141c"/>
<rect x="549" y="0" width="117" height="18" fill="#14141c"/>
<text x="549 558 567 585 594 612 621 630 648" y="14" fill="#8a8578">Tue06Oct•</text>
<rect x="666" y="0" width="45" height="18" fill="#14141c"/>
<text x="666 675 684 693 702" y="14" fill="#e8e3d9">13:59</text>
<rect x="711" y="0" width="9" height="18" fill="#14141c"/>
<rect x="0" y="18" width="144" height="18" fill="#14141c"/>
<text x="0 9 18 27 36 45 54 63 72 81 90 99 108 117 126 135" y="32" fill="#4a4740">┌──────────────┐</text>
<rect x="144" y="18" width="576" height="18" fill="#0a0a0f"/>
<text x="144 153 162 171 180 189 198 207 216 225 234 243 252 261 270 279 288 297 306 315 324 333 342 351 360 369 378 387 396 405 414 423 432 441 450 459 468 477 486 495 504 513 522 531 540 549 558 567 576 585 594 603 612 621 630 639 648 657 666 675 684 693 702 711" y="32" fill="#c1121f">┌──────────────────────────────────────────────────────────────┐</text>
<rect x="0" y="36" width="9" height="18" fill="#14141c"/>
<text x="0" y="50" fill="#4a4740">│</text>
<rect x="9" y="36" width="9" height="18" fill="#14141c"/>
<rect x="18" y="36" width="99" height="18" fill="#14141c"/>
<text x="18 36 45 54 63 72 81 90 99 108" y="50" fill="#8a8578">⌂Dashboard</text>
<rect x="117" y="36" width="18" height="18" fill="#14141c"/>
<rect x="135" y="36" width="9" height="18" fill="#14141c"/>
<text x="135" y="50" fill="#4a4740">│</text>
<rect x="144" y="36" width="9" height="18" fill="#0a0a0f"/>
<text x="144" y="50" fill="#c1121f">│</text>
<rect x="153" y="36" width="9" height="18" fill="#0a0a0f"/>
<rect x="162" y="36" width="81" height="18" fill="#0a0a0f"/>
<text x="162 171 180 189 198 207 216 225 234" y="50" fill="#7bdff2" font-weight="bold">▍ACTIVITY</text>
<rect x="243" y="36" width="468" height="18" fill="#0a0a0f"/>
<rect x="711" y="36" width="9" height="18" fill="#0a0a0f"/>
<text x="711" y="50" fill="#c1121f">│</text>
<rect x="0" y="54" width="9" height="18" fill="#14141c"/>
<text x="0" y="68" fill="#4a4740">│</text>
<rect x="9" y="54" width="9" height="18" fill="#14141c"/>
<rect x="18" y="54" width="54" height="18" fill="#14141c"/>
<text x="18 36 45 54 63" y="68" fill="#8a8578">▤Work</text>
<rect x="72" y="54" width="63" height="18" fill="#14141c"/>
<rect x="135" y="54" width="9" height="18" fill="#14141c"/>
<text x="135" y="68" fill="#4a4740">│</text>
<rect x="144" y="54" width="9" height="18" fill="#0a0a0f"/>
<text x="144" y="68" fill="#c1121f">│</text>
<rect x="153" y="54" width="9" height="18" fill="#0a0a0f"/>
<rect x="162" y="54" width="45" height="18" fill="#0a0a0f"/>
<text x="162 171 180 189 198" y="68" fill="#e0a458" font-weight="bold">Today</text>
<rect x="207" y="54" width="504" height="18" fill="#0a0a0f"/>
<rect x="711" y="54" width="9" height="18" fill="#0a0a0f"/>
<text x="711" y="68" fill="#c1121f">│</text>
<rect x="0" y="72" width="9" height="18" fill="#14141c"/>
<text x="0" y="86" fill="#4a4740">│</text>
<rect x="9" y="72" width="9" height="18" fill="#14141c"/>
<rect x="18" y="72" width="54" height="18" fill="#14141c"/>
<text x="18 36 45 54 63" y="86" fill="#8a8578">◆Jira</text>
<rect x="72" y="72" width="63" height="18" fill="#14141c"/>
<rect x="135" y="72" width="9" height="18" fill="#14141c"/>
<text x="135" y="86" fill="#4a4740">│</text>
<rect x="144" y="72" width="9" height="18" fill="#0a0a0f"/>
<text x="144" y="86" fill="#c1121f">│</text>
<rect x="153" y="72" width="9" height="18" fill="#0a0a0f"/>
<rect x="162" y="72" width="207" height="18" fill="#0a0a0f"/>
<text x="162 171 180 189 198 225 234 243 252 261 270 288 297 306 315 324 333 342" y="86" fill="#8a8578">13:58MobileBanking</text>
<rect x="369" y="72" width="144" height="18" fill="#0a0a0f"/>
<text x="369 378 387 396 405 414 432 441 450 468 477 486 495 504" y="86" fill="#e8e3d9">Pausedthetimer</text>
<rect x="513" y="72" width="90" height="18" fill="#0a0a0f"/>
<text x="531 540 549 558 567 576 585 594" y="86" fill="#8a8578">01:42:18</text>
<rect x="603" y="72" width="108" height="18" fill="#0a0a0f"/>
<rect x="711" y="72" width="9" height="18" fill="#0a0a0f"/>
<text x="711" y="86" fill="#c1121f">│</text>
<rect x="0" y="90" width="9" height="18" fill="#14141c"/>
<text x="0" y="104" fill="#4a4740">│</text>
<rect x="9" y="90" width="9" height="18" fill="#14141c"/>
<rect x="18" y="90" width="45" height="18" fill="#14141c"/>
<text x="18 36 45 54" y="104" fill="#8a8578">±Git</text>
<rect x="63" y="90" width="72" height="18" fill="#14141c"/>
<rect x="135" y="90" width="9" height="18" fill="#14141c"/>
<text x="135" y="104" fill="#4a4740">│</text>
<rect x="144" y="90" width="9" height="18" fill="#0a0a0f"/>
<text x="144" y="104" fill="#c1121f">│</text>
<rect x="153" y="90" width="9" height="18" fill="#0a0a0f"/>
<rect x="162" y="90" width="207" height="18" fill="#0a0a0f"/>
<text x="162 171 180 189 198 225 234 243 252 270 279 288 297 306 315 324" y="104" fill="#8a8578">13:31AuthService</text>
<rect x="369" y="90" width="207" height="18" fill="#0a0a0f"/>
<text x="369 378 387 396 405 423 432 450 459 468 477 486 504 513 522 531 540 549 558 567" y="104" fill="#e8e3d9">MovedtogroupPlatform</text>
<rect x="576" y="90" width="135" height="18" fill="#0a0a0f"/>
<rect x="711" y="90" width="9" height="18" fill="#0a0a0f"/>
<text x="711" y="104" fill="#c1121f">│</text>
<rect x="0" y="108" width="9" height="18" fill="#14141c"/>
<text x="0" y="122" fill="#4a4740">│</text>
<rect x="9" y="108" width="9" height="18" fill="#14141c"/>
<rect x="18" y="108" width="45" height="18" fill="#14141c"/>
<text x="18 36 45 54" y="122" fill="#8a8578">⇅PRs</text>
<rect x="63" y="108" width="72" height="18" fill="#14141c"/>
<rect x="135" y="108" width="9" height="18" fill="#14141c"/>
<text x="135" y="122" fill="#4a4740">│</text>
<rect x="144" y="108" width="9" height="18" fill="#0a0a0f"/>
<text x="144" y="122" fill="#c1121f">│</text>
<rect x="153" y="108" width="9" height="18" fill="#0a0a0f"/>
<rect x="162" y="108" width="207" height="18" fill="#0a0a0f"/>
<text x="162 171 180 189 198 225 234 243 252 261 270 288 297 306 315 324 333 342" y="122" fill="#8a8578">12:20MobileBanking</text>
<rect x="369" y="108" width="153" height="18" fill="#0a0a0f"/>
<text x="369 378 387 396 405 414 423 441 450 459 477 486 495 504 513" y="122" fill="#e8e3d9">Resumedthetimer</text>
<rect x="522" y="108" width="189" height="18" fill="#0a0a0f"/>
<rect x="711" y="108" width="9" height="18" fill="#0a0a0f"/>
<text x="711" y="122" fill="#c1121f">│</text>
<rect x="0" y="126" width="9" height="18" fill="#14141c"/>
<text x="0" y="140" fill="#4a4740">│</text>
<rect x="9" y="126" width="9" height="18" fill="#14141c"/>
<rect x="18" y="126" width="99" height="18" fill="#14141c"/>
<text x="18 36 45 54 63 72 81 90 99 108" y="140" fill="#8a8578">◷Timesheet</text>
<rect x="117" y="126" width="18" height="18" fill="#14141c"/>
<rect x="135" y="126" width="9" height="18" fill="#14141c"/>
<text x="135" y="140" fill="#4a4740">│</text>
<rect x="144" y="126" width="9" height="18" fill="#0a0a0f"/>
<text x="144" y="140" fill="#c1121f">│</text>
<rect x="153" y="126" width="9" height="18" fill="#0a0a0f"/>
<rect x="162" y="126" width="207" height="18" fill="#0a0a0f"/>
<text x="162 171 180 189 198 225 234 243 252 261 270 288 297 306 315 324 333 342" y="140" fill="#8a8578">11:47MobileBanking</text>
<rect x="369" y="126" width="144" height="18" fill="#0a0a0f"/>
<text x="369 378 387 396 405 414 432 441 450 468 477 486 495 504" y="140" fill="#e8e3d9">Pausedthetimer</text>
<rect x="513" y="126" width="90" height="18" fill="#0a0a0f"/>
<text x="531 540 549 558 567 576 585 594" y="140" fill="#8a8578">01:01:13</text>
<rect x="603" y="126" width="108" height="18" fill="#0a0a0f"/>
<rect x="711" y="126" width="9" height="18" fill="#0a0a0f"/>
<text x="711" y="140" fill="#c1121f">│</text>
<rect x="0" y="144" width="9" height="18" fill="#14141c"/>
<text x="0" y="158" fill="#4a4740">│</text>
<rect x="9" y="144" width="9" height="18" fill="#14141c"/>
<rect x="18" y="144" width="81" height="18" fill="#14141c"/>
<text x="18 36 45 54 63 72 81 90" y="158" fill="#8a8578">⚙Jenkins</text>
<rect x="99" y="144" width="36" height="18" fill="#14141c"/>
<rect x="135" y="144" width="9" height="18" fill="#14141c"/>
<text x="135" y="158" fill="#4a4740">│</text>
<rect x="144" y="144" width="9" height="18" fill="#0a0a0f"/>
<text x="144" y="158" fill="#c1121f">│</text>
<rect x="153" y="144" width="9" height="18" fill="#0a0a0f"/>
<rect x="162" y="144" width="207" height="18" fill="#0a0a0f"/>
<text x="162 171 180 189 198 225 234 243 252 261 270 288 297 306 315 324 333 342" y="158" fill="#8a8578">10:46MobileBanking</text>
<rect x="369" y="144" width="189" height="18" fill="#0a0a0f"/>
<text x="369 378 387 396 405 414 423 441 450 459 477 486 495 504 513 531 540 549" y="158" fill="#e8e3d9">Startedthetimerfor</text>
<rect x="558" y="144" width="81" height="18" fill="#0a0a0f"/>
<text x="567 576 585 594 603 612 621 630" y="158" fill="#7bdff2" font-weight="bold">MOB-2841</text>
<rect x="639" y="144" width="72" height="18" fill="#0a0a0f"/>
<rect x="711" y="144" width="9" height="18" fill="#0a0a0f"/>
<text x="711" y="158" fill="#c1121f">│</text>
<rect x="0" y="162" width="9" height="18" fill="#14141c"/>
<text x="0" y="176" fill="#4a4740">│</text>
<rect x="9" y="162" width="9" height="18" fill="#14141c"/>
<rect x="18" y="162" width="81" height="18" fill="#14141c"/>
<text x="18 36 45 54 63 72 81 90" y="176" fill="#8a8578">▣Android</text>
<rect x="99" y="162" width="36" height="18" fill="#14141c"/>
<rect x="135" y="162" width="9" height="18" fill="#14141c"/>
<text x="135" y="176" fill="#4a4740">│</text>
<rect x="144" y="162" width="9" height="18" fill="#0a0a0f"/>
<text x="144" y="176" fill="#c1121f">│</text>
<rect x="153" y="162" width="9" height="18" fill="#0a0a0f"/>
<rect x="162" y="162" width="207" height="18" fill="#0a0a0f"/>
<text x="162 171 180 189 198 225 234 243 252 261 270 288 297 306 315 324 333 342" y="176" fill="#8a8578">10:46MobileBanking</text>
<rect x="369" y="162" width="135" height="18" fill="#0a0a0f"/>
<text x="369 378 387 396 405 414 423 441 450 459 468 486 495" y="176" fill="#e8e3d9">Startedworkon</text>
<rect x="504" y="162" width="81" height="18" fill="#0a0a0f"/>
<text x="513 522 531 540 549 558 567 576" y="176" fill="#7bdff2" font-weight="bold">MOB-2841</text>
<rect x="585" y="162" width="117" height="18" fill="#0a0a0f"/>
<text x="603 612 621 639 648 657 666 675 684 693" y="176" fill="#8a8578">Addbiomet…</text>
<rect x="702" y="162" width="9" height="18" fill="#0a0a0f"/>
<rect x="711" y="162" width="9" height="18" fill="#0a0a0f"/>
<text x="711" y="176" fill="#c1121f">│</text>
<rect x="0" y="180" width="9" height="18" fill="#14141c"/>
<text x="0" y="194" fill="#4a4740">│</text>
<rect x="9" y="180" width="9" height="18" fill="#1c1626"/>
<text x="9" y="194" fill="#c1121f">▌</text>
<rect x="18" y="180" width="90" height="18" fill="#1c1626"/>
<text x="18 36 45 54 63 72 81 90 99" y="194" fill="#e8e3d9">↗Activity</text>
<rect x="108" y="180" width="27" height="18" fill="#1c1626"/>
<rect x="135" y="180" width="9" height="18" fill="#14141c"/>
<text x="135" y="194" fill="#4a4740">│</text>
<rect x="144" y="180" width="9" height="18" fill="#0a0a0f"/>
<text x="144" y="194" fill="#c1121f">│</text>
<rect x="153" y="180" width="9" height="18" fill="#0a0a0f"/>
<rect x="162" y="180" width="207" height="18" fill="#0a0a0f"/>
<text x="162 171 180 189 198 225 234 243 252 261 270 279" y="194" fill="#8a8578">10:45deployd</text>
<rect x="369" y="180" width="153" height="18" fill="#0a0a0f"/>
<text x="369 378 387 396 405 414 423 441 450 459 477 486 495 504 513" y="194" fill="#e8e3d9">Stoppedthetimer</text>
<rect x="522" y="180" width="90" height="18" fill="#0a0a0f"/>
<text x="540 549 558 567 576 585 594 603" y="194" fill="#8a8578">00:38:02</text>
<rect x="612" y="180" width="99" height="18" fill="#0a0a0f"/>
<rect x="711" y="180" width="9" height="18" fill="#0a0a0f"/>
<text x="711" y="194" fill="#c1121f">│</text>
<rect x="0" y="198" width="9" height="18" fill="#14141c"/>
<text x="0" y="212" fill="#4a4740">│</text>
<rect x="9" y="198" width="9" height="18" fill="#14141c"/>
<rect x="18" y="198" width="63" height="18" fill="#14141c"/>
<text x="18 36 45 54 63 72" y="212" fill="#8a8578">✎Notes</text>
<rect x="81" y="198" width="54" height="18" fill="#14141c"/>
<rect x="135" y="198" width="9" height="18" fill="#14141c"/>
<text x="135" y="212" fill="#4a4740">│</text>
<rect x="144" y="198" width="9" height="18" fill="#0a0a0f"/>
<text x="144" y="212" fill="#c1121f">│</text>
<rect x="153" y="198" width="9" height="18" fill="#0a0a0f"/>
<rect x="162" y="198" width="207" height="18" fill="#0a0a0f"/>
<text x="162 171 180 189 198 225 234 243 252 261 270 279" y="212" fill="#8a8578">10:07deployd</text>
<rect x="369" y="198" width="153" height="18" fill="#0a0a0f"/>
<text x="369 378 387 396 405 414 423 441 450 459 477 486 495 504 513" y="212" fill="#e8e3d9">Startedthetimer</text>
<rect x="522" y="198" width="189" height="18" fill="#0a0a0f"/>
<rect x="711" y="198" width="9" height="18" fill="#0a0a0f"/>
<text x="711" y="212" fill="#c1121f">│</text>
<rect x="0" y="216" width="9" height="18" fill="#14141c"/>
<text x="0" y="230" fill="#4a4740">│</text>
<rect x="9" y="216" width="126" height="18" fill="#14141c"/>
<rect x="135" y="216" width="9" height="18" fill="#14141c"/>
<text x="135" y="230" fill="#4a4740">│</text>
<rect x="144" y="216" width="9" height="18" fill="#0a0a0f"/>
<text x="144" y="230" fill="#c1121f">│</text>
<rect x="153" y="216" width="9" height="18" fill="#0a0a0f"/>
<rect x="162" y="216" width="207" height="18" fill="#0a0a0f"/>
<text x="162 171 180 189 198 225 234 243 252 261 270 288 297 306 315 324 333 342" y="230" fill="#8a8578">09:02MobileBanking</text>
<rect x="369" y="216" width="54" height="18" fill="#0a0a0f"/>
<text x="369 378 387 396 405 414" y="230" fill="#e8e3d9">Opened</text>
<rect x="423" y="216" width="288" height="18" fill="#0a0a0f"/>
<rect x="711" y="216" width="9" height="18" fill="#0a0a0f"/>
<text x="711" y="230" fill="#c1121f">│</text>
<rect x="0" y="234" width="9" height="18" fill="#14141c"/>
<text x="0" y="248" fill="#4a4740">│</text>
<rect x="9" y="234" width="126" height="18" fill="#14141c"/>
<rect x="135" y="234" width="9" height="18" fill="#14141c"/>
<text x="135" y="248" fill="#4a4740">│</text>
<rect x="144" y="234" width="9" height="18" fill="#0a0a0f"/>
<text x="144" y="248" fill="#c1121f">│</text>
<rect x="153" y="234" width="9" height="18" fill="#0a0a0f"/>
<rect x="162" y="234" width="81" height="18" fill="#0a0a0f"/>
<text x="162 171 180 189 198 207 216 225 234" y="248" fill="#e0a458" font-weight="bold">Yesterday</text>
<rect x="243" y="234" width="468" height="18" fill="#0a0a0f"/>
<rect x="711" y="234" width="9" height="18" fill="#0a0a0f"/>
<text x="711" y="248" fill="#c1121f">│</text>
<rect x="0" y="252" width="9" height="18" fill="#14141c"/>
<text x="0" y="266" fill="#4a4740">│</text>
<rect x="9" y="252" width="126" height="18" fill="#14141c"/>
<rect x="135" y="252" width="9" height="18" fill="#14141c"/>
<text x="135" y="266" fill="#4a4740">│</text>
<rect x="144" y="252" width="9" height="18" fill="#0a0a0f"/>
<text x="144" y="266" fill="#c1121f">│</text>
<rect x="153" y="252" width="9" height="18" fill="#0a0a0f"/>
<rect x="162" y="252" width="207" height="18" fill="#0a0a0f"/>
<text x="162 171 180 189 198 225 234 243 252 261 270 288 297 306 315 324 333 342" y="266" fill="#8a8578">18:12MobileBanking</text>
<rect x="369" y="252" width="153" height="18" fill="#0a0a0f"/>
<text x="369 378 387 396 405 414 423 441 450 459 477 486 495 504 513" y="266" fill="#e8e3d9">Stoppedthetimer</text>
<rect x="522" y="252" width="90" height="18" fill="#0a0a0f"/>
<text x="540 549 558 567 576 585 594 603" y="266" fill="#8a8578">03:12:40</text>
<rect x="612" y="252" width="99" height="18" fill="#0a0a0f"/>
<rect x="711" y="252" width="9" height="18" fill="#0a0a0f"/>
<text x="711" y="266" fill="#c1121f">│</text>
<rect x="0" y="270" width="9" height="18" fill="#14141c"/>
<text x="0" y="284" fill="#4a4740">│</text>
<rect x="9" y="270" width="126" height="18" fill="#14141c"/>
<rect x="135" y="270" width="9" height="18" fill="#14141c"/>
<text x="135" y="284" fill="#4a4740">│</text>
<rect x="144" y="270" width="9" height="18" fill="#0a0a0f"/>
<text x="144" y="284" fill="#c1121f">│</text>
<rect x="153" y="270" width="9" height="18" fill="#0a0a0f"/>
<rect x="162" y="270" width="207" height="18" fill="#0a0a0f"/>
<text x="162 171 180 189 198 225 234 243 252 261 270 288 297 306 315 324 333 342" y="284" fill="#8a8578">18:12MobileBanking</text>
<rect x="369" y="270" width="144" height="18" fill="#0a0a0f"/>
<text x="369 378 387 396 405 414 423 432 450 459 468 477 495 504" y="284" fill="#e8e3d9">Finishedworkon</text>
<rect x="513" y="270" width="81" height="18" fill="#0a0a0f"/>
<text x="522 531 540 549 558 567 576 585" y="284" fill="#7bdff2" font-weight="bold">MOB-2799</text>
<rect x="594" y="270" width="117" height="18" fill="#0a0a0f"/>
<rect x="711" y="270" width="9" height="18" fill="#0a0a0f"/>
<text x="711" y="284" fill="#c1121f">│</text>
<rect x="0" y="288" width="9" height="18" fill="#14141c"/>
<text x="0" y="302" fill="#4a4740">│</text>
<rect x="9" y="288" width="126" height="18" fill="#14141c"/>
<rect x="135" y="288" width="9" height="18" fill="#14141c"/>
<text x="135" y="302" fill="#4a4740">│</text>
<rect x="144" y="288" width="9" height="18" fill="#0a0a0f"/>
<text x="144" y="302" fill="#c1121f">│</text>
<rect x="153" y="288" width="9" height="18" fill="#0a0a0f"/>
<rect x="162" y="288" width="207" height="18" fill="#0a0a0f"/>
<text x="162 171 180 189 198 225" y="302" fill="#8a8578">17:05-</text>
<rect x="369" y="288" width="288" height="18" fill="#0a0a0f"/>
<text x="369 378 387 396 405 414 423 432 441 450 459 468 486 495 504 513 522 540 549 558 567 576 585 594 603 612 621 639 648" y="302" fill="#e8e3d9">UnrecognisedeventReleaseCutv2</text>
<rect x="657" y="288" width="54" height="18" fill="#0a0a0f"/>
<rect x="711" y="288" width="9" height="18" fill="#0a0a0f"/>
<text x="711" y="302" fill="#c1121f">│</text>
<rect x="0" y="306" width="9" height="18" fill="#14141c"/>
<text x="0" y="320" fill="#4a4740">│</text>
<rect x="9" y="306" width="126" height="18" fill="#14141c"/>
<rect x="135" y="306" width="9" height="18" fill="#14141c"/>
<text x="135" y="320" fill="#4a4740">│</text>
<rect x="144" y="306" width="9" height="18" fill="#0a0a0f"/>
<text x="144" y="320" fill="#c1121f">│</text>
<rect x="153" y="306" width="9" height="18" fill="#0a0a0f"/>
<rect x="162" y="306" width="207" height="18" fill="#0a0a0f"/>
<text x="162 171 180 189 198 225 234 243 252 261 270 288 297 306 315 324 333 342" y="320" fill="#8a8578">15:00MobileBanking</text>
<rect x="369" y="306" width="45" height="18" fill="#0a0a0f"/>
<text x="369 378 387 396 405" y="320" fill="#e8e3d9">Added</text>
<rect x="414" y="306" width="198" height="18" fill="#0a0a0f"/>
<text x="432 441 450 459 468 477 486 495 504 513 522 531 540 549 558 567 576 585 594 603" y="320" fill="#8a8578">/work/mobile-banking</text>
<rect x="612" y="306" width="99" height="18" fill="#0a0a0f"/>
<rect x="711" y="306" width="9" height="18" fill="#0a0a0f"/>
<text x="711" y="320" fill="#c1121f">│</text>
<rect x="0" y="324" width="9" height="18" fill="#14141c"/>
<text x="0" y="338" fill="#4a4740">│</text>
<rect x="9" y="324" width="126" height="18" fill="#14141c"/>
<rect x="135" y="324" width="9" height="18" fill="#14141c"/>
<text x="135" y="338" fill="#4a4740">│</text>
<rect x="144" y="324" width="9" height="18" fill="#0a0a0f"/>
<text x="144" y="338" fill="#c1121f">│</text>
<rect x="153" y="324" width="558" height="18" fill="#0a0a0f"/>
<rect x="711" y="324" width="9" height="18" fill="#0a0a0f"/>
<text x="711" y="338" fill="#c1121f">│</text>
<rect x="0" y="342" width="9" height="18" fill="#14141c"/>
<text x="0" y="356" fill="#4a4740">│</text>
<rect x="9" y="342" width="126" height="18" fill="#14141c"/>
<rect x="135" y="342" width="9" height="18" fill="#14141c"/>
<text x="135" y="356" fill="#4a4740">│</text>
<rect x="144" y="342" width="9" height="18" fill="#0a0a0f"/>
<text x="144" y="356" fill="#c1121f">│</text>
<rect x="153" y="342" width="558" height="18" fill="#0a0a0f"/>
<rect x="711" y="342" width="9" height="18" fill="#0a0a0f"/>
<text x="711" y="356" fill="#c1121f">│</text>
<rect x="0" y="360" width="9" height="18" fill="#14141c"/>
<text x="0" y="374" fill="#4a4740">│</text>
<rect x="9" y="360" width="126" height="18" fill="#14141c"/>
<rect x="135" y="360" width="9" height="18" fill="#14141c"/>
<text x="135" y="374" fill="#4a4740">│</text>
<rect x="144" y="360" width="9" height="18" fill="#0a0a0f"/>
<text x="144" y="374" fill="#c1121f">│</text>
<rect x="153" y="360" width="558" height="18" fill="#0a0a0f"/>
<rect x="711" y="360" width="9" height="18" fill="#0a0a0f"/>
<text x="711" y="374" fill="#c1121f">│</text>
<rect x="0" y="378" width="9" height="18" fill="#14141c"/>
<text x="0" y="392" fill="#4a4740">│</text>
<rect x="9" y="378" width="126" height="18" fill="#14141c"/>
<rect x="135" y="378" width="9" height="18" fill="#14141c"/>
<text x="135" y="392" fill="#4a4740">│</text>
<rect x="144" y="378" width="9" height="18" fill="#0a0a0f"/>
<text x="144" y="392" fill="#c1121f">│</text>
<rect x="153" y="378" width="558" height="18" fill="#0a0a0f"/>
<rect x="711" y="378" width="9" height="18" fill="#0a0a0f"/>
<text x="711" y="392" fill="#c1121f">│</text>
<rect x="0" y="396" width="144" height="18" fill="#14141c"/>
<text x="0 9 18 27 36 45 54 63 72 81 90 99 108 117 126 135" y="410" fill="#4a4740">└──────────────┘</text>
<rect x="144" y="396" width="576" height="18" fill="#0a0a0f"/>
<text x="144 153 162 171 180 189 198 207 216 225 234 243 252 261 270 279 288 297 306 315 324 333 342 351 360 369 378 387 396 405 414 423 432 441 450 459 468 477 486 495 504 513 522 531 540 549 558 567 576 585 594 603 612 621 630 639 648 657 666 675 684 693 702 711" y="410" fill="#c1121f">└──────────────────────────────────────────────────────────────┘</text>
<rect x="0" y="414" width="9" height="18" fill="#14141c"/>
<rect x="9" y="414" width="18" height="18" fill="#1c1626"/>
<text x="9 18" y="428" fill="#e8e3d9">↑↓</text>
<rect x="27" y="414" width="99" height="18" fill="#14141c"/>
<text x="36 45 54 63 72 81 90 99" y="428" fill="#8a8578">navigate</text>
<rect x="126" y="414" width="18" height="18" fill="#1c1626"/>
<text x="126 135" y="428" fill="#e8e3d9">^W</text>
<rect x="144" y="414" width="117" height="18" fill="#14141c"/>
<text x="153 162 171 180 189 198 207 216 225 234" y="428" fill="#8a8578">workspaces</text>
<rect x="261" y="414" width="9" height="18" fill="#1c1626"/>
<text x="261" y="428" fill="#e8e3d9">:</text>
<rect x="270" y="414" width="99" height="18" fill="#14141c"/>
<text x="279 288 297 306 315 324 333 342" y="428" fill="#8a8578">commands</text>
<rect x="369" y="414" width="9" height="18" fill="#1c1626"/>
<text x="369" y="428" fill="#e8e3d9">q</text>
<rect x="378" y="414" width="63" height="18" fill="#14141c"/>
<text x="387 396 405 414" y="428" fill="#8a8578">quit</text>
<rect x="441" y="414" width="279" height="18" fill="#14141c"/>
</svg>
