<svg xmlns="http://www.w3.org/2000/svg" width="900" height="540" viewBox="0 0 900 540" font-family="Menlo, 'DejaVu Sans Mono', 'Hiragino Sans GB', 'Noto Sans CJK SC', 'PingFang SC', monospace" font-size="15">
<title>XueFu: jira-move</title>
<rect x="0" y="0" width="9" height="18" fill="#0d0d12"/>
<rect x="9" y="0" width="36" height="18" fill="#0d0d12"/>
<text x="9 27" y="14" fill="#682f29" font-weight="bold">血符</text>
<rect x="45" y="0" width="18" height="18" fill="#0d0d12"/>
<rect x="63" y="0" width="162" height="18" fill="#534b6f"/>
<text x="72 90 99 108 117 126 135 153 162 171 180 189 198 207" y="14" fill="#0d0d12" font-weight="bold">1MobileBanking</text>
<rect x="225" y="0" width="513" height="18" fill="#0d0d12"/>
<rect x="738" y="0" width="153" height="18" fill="#0d0d12"/>
<text x="738 747 756 774 783 801 810 819 846 855 864 873 882" y="14" fill="#454752">Tue06Oct13:59</text>
<rect x="891" y="0" width="9" height="18" fill="#0d0d12"/>
<rect x="0" y="18" width="9" height="18" fill="#0d0d12"/>
<rect x="9" y="18" width="216" height="18" fill="#0d0d12"/>
<text x="63 72 81 90 99 108 117 126 135 144 153 162 171 180 189 198 207 216" y="32" fill="#534b6f">▔▔▔▔▔▔▔▔▔▔▔▔▔▔▔▔▔▔</text>
<rect x="225" y="18" width="675" height="18" fill="#0d0d12"/>
<rect x="0" y="36" width="18" height="18" fill="#0d0d12"/>
<text x="0 9" y="50" fill="#1b1d29">╭─</text>
<rect x="18" y="36" width="54" height="18" fill="#0d0d12"/>
<text x="27 45" y="50" fill="#454752">导航</text>
<rect x="72" y="36" width="81" height="18" fill="#0d0d12"/>
<text x="72 81 90 99 108 117 126 135 144" y="50" fill="#1b1d29">────────╮</text>
<rect x="153" y="36" width="747" height="18" fill="#0d0d12"/>
<text x="153 162 180 189 198 207 225 234 243 252 261 270 279 288 297 306 315 324 333 342 351 360 369 378 387 396 405 414 423 432 441 450 459 468 477 486 495 504 513 522 531 540 549 558 567 576 585 594 603 612 621 630 639 648 657 666 675 684 693 702 711 720 729 738 747 756 765 774 783 792 801 819 837 846 864 882 891" y="50" fill="#6d4b34">╭─Jira─────────────────────────────────────────────────────────────────6of9─╮</text>
<rect x="0" y="54" width="9" height="18" fill="#0d0d12"/>
<text x="0" y="68" fill="#1b1d29">│</text>
<rect x="9" y="54" width="9" height="18" fill="#0d0d12"/>
<rect x="18" y="54" width="27" height="18" fill="#0d0d12"/>
<text x="27" y="68" fill="#282935">D</text>
<rect x="45" y="54" width="90" height="18" fill="#0d0d12"/>
<text x="54 63 72 81 90 99 108 117 126" y="68" fill="#454752">Dashboard</text>
<rect x="135" y="54" width="9" height="18" fill="#0d0d12"/>
<rect x="144" y="54" width="9" height="18" fill="#0d0d12"/>
<text x="144" y="68" fill="#1b1d29">│</text>
<rect x="153" y="54" width="9" height="18" fill="#0d0d12"/>
<text x="153" y="68" fill="#6d4b34">│</text>
<rect x="162" y="54" width="9" height="18" fill="#0d0d12"/>
<rect x="171" y="54" width="18" height="18" fill="#0d0d12"/>
<text x="171" y="68" fill="#405f4a">✓</text>
<rect x="189" y="54" width="342" height="18" fill="#0d0d12"/>
<text x="189 198 207 216 225 234 243 261 270 288 297 306 315 324 333 342 351 369 378 396 405 414 423 432 441 459 468 477 486 495 504 513 522" y="68" fill="#626369">WorkingonMOB-2802inMobileBanking.</text>
<rect x="531" y="54" width="360" height="18" fill="#0d0d12"/>
<rect x="891" y="54" width="9" height="18" fill="#0d0d12"/>
<text x="891" y="68" fill="#6d4b34">│</text>
<rect x="0" y="72" width="9" height="18" fill="#0d0d12"/>
<text x="0" y="86" fill="#1b1d29">│</text>
<rect x="9" y="72" width="135" height="18" fill="#0d0d12"/>
<rect x="144" y="72" width="9" height="18" fill="#0d0d12"/>
<text x="144" y="86" fill="#1b1d29">│</text>
<rect x="153" y="72" width="9" height="18" fill="#0d0d12"/>
<text x="153" y="86" fill="#6d4b34">│</text>
<rect x="162" y="72" width="9" height="18" fill="#0d0d12"/>
<rect x="171" y="72" width="72" height="18" fill="#0d0d12"/>
<text x="171 180 189 198 207 216 225 234" y="86" fill="#534b6f">MOB-2841</text>
<rect x="243" y="72" width="18" height="18" fill="#0d0d12"/>
<rect x="261" y="72" width="144" height="18" fill="#0d0d12"/>
<text x="261 270 288 297 306 315 324 333 342 351" y="86" fill="#3c4e6d">InProgress</text>
<rect x="405" y="72" width="18" height="18" fill="#0d0d12"/>
<rect x="423" y="72" width="405" height="18" fill="#0d0d12"/>
<text x="423 432 441 459 468 477 486 495 504 513 522 531 549 558 567 576 585 603 612 630 639 648 666 675 684 693 702 711 729 738 747 756 765 774 783 801 810 819" y="86" fill="#626369">Addbiometriclogintothemobilebankingapp</text>
<rect x="828" y="72" width="63" height="18" fill="#0d0d12"/>
<rect x="891" y="72" width="9" height="18" fill="#0d0d12"/>
<text x="891" y="86" fill="#6d4b34">│</text>
<rect x="0" y="90" width="9" height="18" fill="#0d0d12"/>
<text x="0" y="104" fill="#1b1d29">│</text>
<rect x="9" y="90" width="9" height="18" fill="#0d0d12"/>
<rect x="18" y="90" width="27" height="18" fill="#0d0d12"/>
<text x="27" y="104" fill="#282935">W</text>
<rect x="45" y="90" width="45" height="18" fill="#0d0d12"/>
<text x="54 63 72 81" y="104" fill="#454752">Work</text>
<rect x="90" y="90" width="54" height="18" fill="#0d0d12"/>
<rect x="144" y="90" width="9" height="18" fill="#0d0d12"/>
<text x="144" y="104" fill="#1b1d29">│</text>
<rect x="153" y="90" width="9" height="18" fill="#0d0d12"/>
<text x="153" y="104" fill="#6d4b34">│</text>
<rect x="162" y="90" width="9" height="18" fill="#0d0d12"/>
<rect x="171" y="90" width="72" height="18" fill="#0d0d12"/>
<text x="171 180 189 198 207 216 225 234" y="104" fill="#534b6f">MOB-2790</text>
<rect x="243" y="90" width="18" height="18" fill="#0d0d12"/>
<rect x="261" y="90" width="144" height="18" fill="#0d0d12"/>
<text x="261 270 288 297 306 315 324 333" y="104" fill="#3c4e6d">InReview</text>
<rect x="405" y="90" width="18" height="18" fill="#0d0d12"/>
<rect x="423" y="90" width="459" height="18" fill="#0d0d12"/>
<text x="423 432 441 450 459 477 486 495 504 522 531 540 549 558 567 576 585 603 612 621 639 648 657 666 675 684 693 702 720 729 738 747 756 765 774 783 792 801 810 819 837 846 855 864 873" y="104" fill="#626369">Crashwhenrotatingthetransferconfirmationscre…</text>
<rect x="882" y="90" width="9" height="18" fill="#0d0d12"/>
<rect x="891" y="90" width="9" height="18" fill="#0d0d12"/>
<text x="891" y="104" fill="#6d4b34">│</text>
<rect x="0" y="108" width="9" height="18" fill="#0d0d12"/>
<text x="0" y="122" fill="#1b1d29">│</text>
<rect x="9" y="108" width="135" height="18" fill="#0d0d12"/>
<rect x="144" y="108" width="9" height="18" fill="#0d0d12"/>
<text x="144" y="122" fill="#1b1d29">│</text>
<rect x="153" y="108" width="9" height="18" fill="#0d0d12"/>
<text x="153" y="122" fill="#6d4b34">│</text>
<rect x="162" y="108" width="9" height="18" fill="#0d0d12"/>
<rect x="171" y="108" width="72" height="18" fill="#171525"/>
<text x="171 180 189 198 207 216 225 234" y="122" fill="#534b6f">MOB-2802</text>
<rect x="243" y="108" width="18" height="18" fill="#171525"/>
<rect x="261" y="108" width="144" height="18" fill="#171525"/>
<text x="261 270 288 297" y="122" fill="#454752">ToDo</text>
<rect x="405" y="108" width="18" height="18" fill="#171525"/>
<rect x="423" y="108" width="459" height="18" fill="#171525"/>
<text x="423 432 441 450 468 477 486 495 504 513 522 540 549 558 567 585 594 603 612 621 630 639 648 657 666 675 684 702 711 729 738 747 765 774 783 792 801 810 819 837 846 855 864 873" y="122" fill="#626369">Showpendingcardtransactionsintheaccounthist…</text>
<rect x="882" y="108" width="9" height="18" fill="#0d0d12"/>
<rect x="891" y="108" width="9" height="18" fill="#0d0d12"/>
<text x="891" y="122" fill="#6d4b34">│</text>
<rect x="0" y="126" width="9" height="18" fill="#0d0d12"/>
<text x="0" y="140" fill="#1b1d29">│</text>
<rect x="9" y="126" width="9" height="18" fill="#0d0d12"/>
<rect x="18" y="126" width="27" height="18" fill="#0d0d12"/>
<text x="27" y="140" fill="#282935">G</text>
<rect x="45" y="126" width="36" height="18" fill="#0d0d12"/>
<text x="54 63 72" y="140" fill="#454752">Git</text>
<rect x="81" y="126" width="63" height="18" fill="#0d0d12"/>
<rect x="144" y="126" width="9" height="18" fill="#0d0d12"/>
<text x="144" y="140" fill="#1b1d29">│</text>
<rect x="153" y="126" width="9" height="18" fill="#0d0d12"/>
<text x="153" y="140" fill="#6d4b34">│</text>
<rect x="162" y="126" width="9" height="18" fill="#0d0d12"/>
<rect x="171" y="126" width="72" height="18" fill="#0d0d12"/>
<text x="171 180 189 198 207 216 225 234" y="140" fill="#534b6f">MOB-2755</text>
<rect x="243" y="126" width="18" height="18" fill="#0d0d12"/>
<rect x="261" y="126" width="144" height="18" fill="#0d0d12"/>
<text x="261 270 279 288 297 306 315" y="140" fill="#454752">Blocked</text>
<rect x="405" y="126" width="18" height="18" fill="#0d0d12"/>
<rect x="423" y="126" width="360" height="18" fill="#0d0d12"/>
<text x="423 432 441 450 459 468 477 495 504 513 531 540 549 558 567 576 585 594 603 612 630 639 648 657 666 684 693 711 720 729 738 747 756 774" y="140" fill="#626369">UpgradethenetworkingstacktoOkHttp5</text>
<rect x="783" y="126" width="108" height="18" fill="#0d0d12"/>
<rect x="891" y="126" width="9" height="18" fill="#0d0d12"/>
<text x="891" y="140" fill="#6d4b34">│</text>
<rect x="0" y="144" width="9" height="18" fill="#0d0d12"/>
<text x="0" y="158" fill="#1b1d29">│</text>
<rect x="9" y="144" width="135" height="18" fill="#0d0d12"/>
<rect x="144" y="144" width="9" height="18" fill="#0d0d12"/>
<text x="144" y="158" fill="#1b1d29">│</text>
<rect x="153" y="144" width="9" height="18" fill="#0d0d12"/>
<text x="153" y="158" fill="#6d4b34">│</text>
<rect x="162" y="144" width="9" height="18" fill="#0d0d12"/>
<rect x="171" y="144" width="72" height="18" fill="#0d0d12"/>
<text x="171 180 189 198 207 216 225" y="158" fill="#534b6f">SDK-412</text>
<rect x="243" y="144" width="18" height="18" fill="#0d0d12"/>
<rect x="261" y="144" width="144" height="18" fill="#0d0d12"/>
<text x="261 270 279 288 297 306 315 324 342 351 360 378 387 396" y="158" fill="#454752">SelectedforDe…</text>
<rect x="405" y="144" width="18" height="18" fill="#0d0d12"/>
<rect x="423" y="144" width="459" height="18" fill="#0d0d12"/>
<text x="423 432 441 450 459 468 486 495 504 522 531 540 549 558 567 576 594 603 612 621 630 639 648 666 675 684 693 702 711 720 729 747 756 774 783 792 810 819 828 837 846 855 873" y="158" fill="#626369">Exposethesessionrefreshcallbackintheshared…</text>
<rect x="882" y="144" width="9" height="18" fill="#0d0d12"/>
<rect x="891" y="144" width="9" height="18" fill="#0d0d12"/>
<text x="891" y="158" fill="#6d4b34">│</text>
<rect x="0" y="162" width="9" height="18" fill="#0d0d12"/>
<text x="0" y="176" fill="#1b1d29">│</text>
<rect x="9" y="162" width="9" height="18" fill="#0d0d12"/>
<rect x="18" y="162" width="27" height="18" fill="#171525"/>
<text x="27" y="176" fill="#626369">J</text>
<rect x="45" y="162" width="45" height="18" fill="#0d0d12"/>
<text x="54 63 72 81" y="176" fill="#626369" font-weight="bold">Jira</text>
<rect x="90" y="162" width="54" height="18" fill="#0d0d12"/>
<rect x="144" y="162" width="9" height="18" fill="#0d0d12"/>
<text x="144" y="176" fill="#1b1d29">│</text>
<rect x="153" y="162" width="9" height="18" fill="#0d0d12"/>
<text x="153" y="176" fill="#6d4b34">│</text>
<rect x="162" y="162" width="9" height="18" fill="#0d0d12"/>
<rect x="171" y="162" width="72" height="18" fill="#0d0d12"/>
<text x="171 180 189 198 207 216 225 234" y="176" fill="#534b6f">MOB-2611</text>
<rect x="243" y="162" width="18" height="18" fill="#0d0d12"/>
<rect x="261" y="162" width="144" height="18" fill="#0d0d12"/>
<text x="261 270 279 288 297 315 324 333 351 360" y="176" fill="#3c4e6d">ReadyforQA</text>
<rect x="405" y="162" width="18" height="18" fill="#0d0d12"/>
<rect x="423" y="162" width="351" height="18" fill="#0d0d12"/>
<text x="423 432 441 450 459 468 477 486 495 504 513 522 531 549 558 567 576 585 594 612 621 630 648 657 666 684 693 702 711 720 738 747 756 765" y="176" fill="#626369">Accessibilitylabelsforthepayeelist</text>
<rect x="774" y="162" width="117" height="18" fill="#0d0d12"/>
<rect x="891" y="162" width="9" height="18" fill="#0d0d12"/>
<text x="891" y="176" fill="#6d4b34">│</text>
<rect x="0" y="180" width="9" height="18" fill="#0d0d12"/>
<text x="0" y="194" fill="#1b1d29">│</text>
<rect x="9" y="180" width="135" height="18" fill="#0d0d12"/>
<rect x="144" y="180" width="9" height="18" fill="#0d0d12"/>
<text x="144" y="194" fill="#1b1d29">│</text>
<rect x="153" y="180" width="9" height="18" fill="#0d0d12"/>
<text x="153" y="194" fill="#6d4b34">│</text>
<rect x="162" y="180" width="18" height="18" fill="#272939"/>
<text x="162 171" y="194" fill="#f2a774">┌─</text>
<rect x="180" y="180" width="144" height="18" fill="#272939"/>
<text x="189 198 207 216 234 243 252 261 270 279 288 297 306" y="194" fill="#b8a6f6">MoveMOB-2802?</text>
<rect x="324" y="180" width="414" height="18" fill="#272939"/>
<text x="324 333 342 351 360 369 378 387 396 405 414 423 432 441 450 459 468 477 486 495 504 513 522 531 540 549 558 567 576 585 594 603 612 621 630 639 648 657 666 675 684 693 702 711 720 729" y="194" fill="#f2a774">─────────────────────────────────────────────┐</text>
<rect x="738" y="180" width="153" height="18" fill="#0d0d12"/>
<rect x="891" y="180" width="9" height="18" fill="#0d0d12"/>
<text x="891" y="194" fill="#6d4b34">│</text>
<rect x="0" y="198" width="9" height="18" fill="#0d0d12"/>
<text x="0" y="212" fill="#1b1d29">│</text>
<rect x="9" y="198" width="9" height="18" fill="#0d0d12"/>
<rect x="18" y="198" width="27" height="18" fill="#0d0d12"/>
<text x="27" y="212" fill="#282935">T</text>
<rect x="45" y="198" width="90" height="18" fill="#0d0d12"/>
<text x="54 63 72 81 90 99 108 117 126" y="212" fill="#454752">Timesheet</text>
<rect x="135" y="198" width="9" height="18" fill="#0d0d12"/>
<rect x="144" y="198" width="9" height="18" fill="#0d0d12"/>
<text x="144" y="212" fill="#1b1d29">│</text>
<rect x="153" y="198" width="9" height="18" fill="#0d0d12"/>
<text x="153" y="212" fill="#6d4b34">│</text>
<rect x="162" y="198" width="9" height="18" fill="#272939"/>
<text x="162" y="212" fill="#f2a774">│</text>
<rect x="171" y="198" width="9" height="18" fill="#272939"/>
<rect x="180" y="198" width="45" height="18" fill="#272939"/>
<text x="180 189 198 207 216" y="212" fill="#9a9db6">Issue</text>
<rect x="225" y="198" width="90" height="18" fill="#272939"/>
<text x="243 252 261 270 279 288 297 306" y="212" fill="#dadcea">MOB-2802</text>
<rect x="315" y="198" width="414" height="18" fill="#272939"/>
<rect x="729" y="198" width="9" height="18" fill="#272939"/>
<text x="729" y="212" fill="#f2a774">│</text>
<rect x="738" y="198" width="153" height="18" fill="#0d0d12"/>
<rect x="891" y="198" width="9" height="18" fill="#0d0d12"/>
<text x="891" y="212" fill="#6d4b34">│</text>
<rect x="0" y="216" width="9" height="18" fill="#0d0d12"/>
<text x="0" y="230" fill="#1b1d29">│</text>
<rect x="9" y="216" width="135" height="18" fill="#0d0d12"/>
<rect x="144" y="216" width="9" height="18" fill="#0d0d12"/>
<text x="144" y="230" fill="#1b1d29">│</text>
<rect x="153" y="216" width="9" height="18" fill="#0d0d12"/>
<text x="153" y="230" fill="#6d4b34">│</text>
<rect x="162" y="216" width="9" height="18" fill="#272939"/>
<text x="162" y="230" fill="#f2a774">│</text>
<rect x="171" y="216" width="9" height="18" fill="#272939"/>
<rect x="180" y="216" width="45" height="18" fill="#272939"/>
<text x="180 189 198 207" y="230" fill="#9a9db6">From</text>
<rect x="225" y="216" width="63" height="18" fill="#272939"/>
<text x="243 252 270 279" y="230" fill="#dadcea">ToDo</text>
<rect x="288" y="216" width="441" height="18" fill="#272939"/>
<rect x="729" y="216" width="9" height="18" fill="#272939"/>
<text x="729" y="230" fill="#f2a774">│</text>
<rect x="738" y="216" width="153" height="18" fill="#0d0d12"/>
<rect x="891" y="216" width="9" height="18" fill="#0d0d12"/>
<text x="891" y="230" fill="#6d4b34">│</text>
<rect x="0" y="234" width="9" height="18" fill="#0d0d12"/>
<text x="0" y="248" fill="#1b1d29">│</text>
<rect x="9" y="234" width="9" height="18" fill="#0d0d12"/>
<rect x="18" y="234" width="27" height="18" fill="#0d0d12"/>
<text x="27" y="248" fill="#282935">L</text>
<rect x="45" y="234" width="81" height="18" fill="#0d0d12"/>
<text x="54 63 72 81 90 99 108 117" y="248" fill="#454752">Activity</text>
<rect x="126" y="234" width="18" height="18" fill="#0d0d12"/>
<rect x="144" y="234" width="9" height="18" fill="#0d0d12"/>
<text x="144" y="248" fill="#1b1d29">│</text>
<rect x="153" y="234" width="9" height="18" fill="#0d0d12"/>
<text x="153" y="248" fill="#6d4b34">│</text>
<rect x="162" y="234" width="9" height="18" fill="#272939"/>
<text x="162" y="248" fill="#f2a774">│</text>
<rect x="171" y="234" width="9" height="18" fill="#272939"/>
<rect x="180" y="234" width="45" height="18" fill="#272939"/>
<text x="180 189" y="248" fill="#9a9db6">To</text>
<rect x="225" y="234" width="117" height="18" fill="#272939"/>
<text x="243 252 270 279 288 297 306 315 324 333" y="248" fill="#dadcea">InProgress</text>
<rect x="342" y="234" width="387" height="18" fill="#272939"/>
<rect x="729" y="234" width="9" height="18" fill="#272939"/>
<text x="729" y="248" fill="#f2a774">│</text>
<rect x="738" y="234" width="153" height="18" fill="#0d0d12"/>
<rect x="891" y="234" width="9" height="18" fill="#0d0d12"/>
<text x="891" y="248" fill="#6d4b34">│</text>
<rect x="0" y="252" width="9" height="18" fill="#0d0d12"/>
<text x="0" y="266" fill="#1b1d29">│</text>
<rect x="9" y="252" width="135" height="18" fill="#0d0d12"/>
<rect x="144" y="252" width="9" height="18" fill="#0d0d12"/>
<text x="144" y="266" fill="#1b1d29">│</text>
<rect x="153" y="252" width="9" height="18" fill="#0d0d12"/>
<text x="153" y="266" fill="#6d4b34">│</text>
<rect x="162" y="252" width="9" height="18" fill="#272939"/>
<text x="162" y="266" fill="#f2a774">│</text>
<rect x="171" y="252" width="558" height="18" fill="#272939"/>
<rect x="729" y="252" width="9" height="18" fill="#272939"/>
<text x="729" y="266" fill="#f2a774">│</text>
<rect x="738" y="252" width="153" height="18" fill="#0d0d12"/>
<rect x="891" y="252" width="9" height="18" fill="#0d0d12"/>
<text x="891" y="266" fill="#6d4b34">│</text>
<rect x="0" y="270" width="9" height="18" fill="#0d0d12"/>
<text x="0" y="284" fill="#1b1d29">│</text>
<rect x="9" y="270" width="9" height="18" fill="#0d0d12"/>
<rect x="18" y="270" width="27" height="18" fill="#0d0d12"/>
<text x="27" y="284" fill="#282935">N</text>
<rect x="45" y="270" width="54" height="18" fill="#0d0d12"/>
<text x="54 63 72 81 90" y="284" fill="#454752">Notes</text>
<rect x="99" y="270" width="45" height="18" fill="#0d0d12"/>
<rect x="144" y="270" width="9" height="18" fill="#0d0d12"/>
<text x="144" y="284" fill="#1b1d29">│</text>
<rect x="153" y="270" width="9" height="18" fill="#0d0d12"/>
<text x="153" y="284" fill="#6d4b34">│</text>
<rect x="162" y="270" width="9" height="18" fill="#272939"/>
<text x="162" y="284" fill="#f2a774">│</text>
<rect x="171" y="270" width="9" height="18" fill="#272939"/>
<rect x="180" y="270" width="531" height="18" fill="#272939"/>
<text x="180 189 198 207 216 234 243 252 261 270 279 288 297 315 324 342 351 369 378 387 396 405 414 423 432 450 459 477 486 495 504 513 531 540 549 558 567 585 594 603 621 630 639 648 666 675 684 693" y="284" fill="#dadcea">MovesMOB-2802toInProgressinJira,wheretheteamwill</text>
<rect x="711" y="270" width="18" height="18" fill="#272939"/>
<rect x="729" y="270" width="9" height="18" fill="#272939"/>
<text x="729" y="284" fill="#f2a774">│</text>
<rect x="738" y="270" width="153" height="18" fill="#0d0d12"/>
<rect x="891" y="270" width="9" height="18" fill="#0d0d12"/>
<text x="891" y="284" fill="#6d4b34">│</text>
<rect x="0" y="288" width="9" height="18" fill="#0d0d12"/>
<text x="0" y="302" fill="#1b1d29">│</text>
<rect x="9" y="288" width="135" height="18" fill="#0d0d12"/>
<rect x="144" y="288" width="9" height="18" fill="#0d0d12"/>
<text x="144" y="302" fill="#1b1d29">│</text>
<rect x="153" y="288" width="9" height="18" fill="#0d0d12"/>
<text x="153" y="302" fill="#6d4b34">│</text>
<rect x="162" y="288" width="9" height="18" fill="#272939"/>
<text x="162" y="302" fill="#f2a774">│</text>
<rect x="171" y="288" width="9" height="18" fill="#272939"/>
<rect x="180" y="288" width="63" height="18" fill="#272939"/>
<text x="180 189 198 216 225 234" y="302" fill="#dadcea">seeit.</text>
<rect x="243" y="288" width="486" height="18" fill="#272939"/>
<rect x="729" y="288" width="9" height="18" fill="#272939"/>
<text x="729" y="302" fill="#f2a774">│</text>
<rect x="738" y="288" width="153" height="18" fill="#0d0d12"/>
<rect x="891" y="288" width="9" height="18" fill="#0d0d12"/>
<text x="891" y="302" fill="#6d4b34">│</text>
<rect x="0" y="306" width="9" height="18" fill="#0d0d12"/>
<text x="0" y="320" fill="#1b1d29">│</text>
<rect x="9" y="306" width="135" height="18" fill="#0d0d12"/>
<rect x="144" y="306" width="9" height="18" fill="#0d0d12"/>
<text x="144" y="320" fill="#1b1d29">│</text>
<rect x="153" y="306" width="9" height="18" fill="#0d0d12"/>
<text x="153" y="320" fill="#6d4b34">│</text>
<rect x="162" y="306" width="9" height="18" fill="#272939"/>
<text x="162" y="320" fill="#f2a774">│</text>
<rect x="171" y="306" width="558" height="18" fill="#272939"/>
<rect x="729" y="306" width="9" height="18" fill="#272939"/>
<text x="729" y="320" fill="#f2a774">│</text>
<rect x="738" y="306" width="153" height="18" fill="#0d0d12"/>
<rect x="891" y="306" width="9" height="18" fill="#0d0d12"/>
<text x="891" y="320" fill="#6d4b34">│</text>
<rect x="0" y="324" width="9" height="18" fill="#0d0d12"/>
<text x="0" y="338" fill="#1b1d29">│</text>
<rect x="9" y="324" width="135" height="18" fill="#0d0d12"/>
<rect x="144" y="324" width="9" height="18" fill="#0d0d12"/>
<text x="144" y="338" fill="#1b1d29">│</text>
<rect x="153" y="324" width="9" height="18" fill="#0d0d12"/>
<text x="153" y="338" fill="#6d4b34">│</text>
<rect x="162" y="324" width="9" height="18" fill="#272939"/>
<text x="162" y="338" fill="#f2a774">│</text>
<rect x="171" y="324" width="9" height="18" fill="#272939"/>
<rect x="180" y="324" width="45" height="18" fill="#272939"/>
<text x="180 189 198 207 216" y="338" fill="#f2a774">enter</text>
<rect x="225" y="324" width="45" height="18" fill="#272939"/>
<text x="234 243 252 261" y="338" fill="#dadcea">move</text>
<rect x="270" y="324" width="45" height="18" fill="#272939"/>
<text x="288 297 306" y="338" fill="#f2a774">esc</text>
<rect x="315" y="324" width="63" height="18" fill="#272939"/>
<text x="324 333 342 351 360 369" y="338" fill="#dadcea">cancel</text>
<rect x="378" y="324" width="351" height="18" fill="#272939"/>
<rect x="729" y="324" width="9" height="18" fill="#272939"/>
<text x="729" y="338" fill="#f2a774">│</text>
<rect x="738" y="324" width="153" height="18" fill="#0d0d12"/>
<rect x="891" y="324" width="9" height="18" fill="#0d0d12"/>
<text x="891" y="338" fill="#6d4b34">│</text>
<rect x="0" y="342" width="9" height="18" fill="#0d0d12"/>
<text x="0" y="356" fill="#1b1d29">│</text>
<rect x="9" y="342" width="135" height="18" fill="#0d0d12"/>
<rect x="144" y="342" width="9" height="18" fill="#0d0d12"/>
<text x="144" y="356" fill="#1b1d29">│</text>
<rect x="153" y="342" width="9" height="18" fill="#0d0d12"/>
<text x="153" y="356" fill="#6d4b34">│</text>
<rect x="162" y="342" width="576" height="18" fill="#272939"/>
<text x="162 171 180 189 198 207 216 225 234 243 252 261 270 279 288 297 306 315 324 333 342 351 360 369 378 387 396 405 414 423 432 441 450 459 468 477 486 495 504 513 522 531 540 549 558 567 576 585 594 603 612 621 630 639 648 657 666 675 684 693 702 711 720 729" y="356" fill="#f2a774">└──────────────────────────────────────────────────────────────┘</text>
<rect x="738" y="342" width="153" height="18" fill="#0d0d12"/>
<rect x="891" y="342" width="9" height="18" fill="#0d0d12"/>
<text x="891" y="356" fill="#6d4b34">│</text>
<rect x="0" y="360" width="9" height="18" fill="#0d0d12"/>
<text x="0" y="374" fill="#1b1d29">│</text>
<rect x="9" y="360" width="135" height="18" fill="#0d0d12"/>
<rect x="144" y="360" width="9" height="18" fill="#0d0d12"/>
<text x="144" y="374" fill="#1b1d29">│</text>
<rect x="153" y="360" width="9" height="18" fill="#0d0d12"/>
<text x="153" y="374" fill="#6d4b34">│</text>
<rect x="162" y="360" width="729" height="18" fill="#0d0d12"/>
<rect x="891" y="360" width="9" height="18" fill="#0d0d12"/>
<text x="891" y="374" fill="#6d4b34">│</text>
<rect x="0" y="378" width="9" height="18" fill="#0d0d12"/>
<text x="0" y="392" fill="#1b1d29">│</text>
<rect x="9" y="378" width="135" height="18" fill="#0d0d12"/>
<rect x="144" y="378" width="9" height="18" fill="#0d0d12"/>
<text x="144" y="392" fill="#1b1d29">│</text>
<rect x="153" y="378" width="9" height="18" fill="#0d0d12"/>
<text x="153" y="392" fill="#6d4b34">│</text>
<rect x="162" y="378" width="729" height="18" fill="#0d0d12"/>
<rect x="891" y="378" width="9" height="18" fill="#0d0d12"/>
<text x="891" y="392" fill="#6d4b34">│</text>
<rect x="0" y="396" width="9" height="18" fill="#0d0d12"/>
<text x="0" y="410" fill="#1b1d29">│</text>
<rect x="9" y="396" width="135" height="18" fill="#0d0d12"/>
<rect x="144" y="396" width="9" height="18" fill="#0d0d12"/>
<text x="144" y="410" fill="#1b1d29">│</text>
<rect x="153" y="396" width="9" height="18" fill="#0d0d12"/>
<text x="153" y="410" fill="#6d4b34">│</text>
<rect x="162" y="396" width="729" height="18" fill="#0d0d12"/>
<rect x="891" y="396" width="9" height="18" fill="#0d0d12"/>
<text x="891" y="410" fill="#6d4b34">│</text>
<rect x="0" y="414" width="9" height="18" fill="#0d0d12"/>
<text x="0" y="428" fill="#1b1d29">│</text>
<rect x="9" y="414" width="135" height="18" fill="#0d0d12"/>
<rect x="144" y="414" width="9" height="18" fill="#0d0d12"/>
<text x="144" y="428" fill="#1b1d29">│</text>
<rect x="153" y="414" width="9" height="18" fill="#0d0d12"/>
<text x="153" y="428" fill="#6d4b34">│</text>
<rect x="162" y="414" width="729" height="18" fill="#0d0d12"/>
<rect x="891" y="414" width="9" height="18" fill="#0d0d12"/>
<text x="891" y="428" fill="#6d4b34">│</text>
<rect x="0" y="432" width="9" height="18" fill="#0d0d12"/>
<text x="0" y="446" fill="#1b1d29">│</text>
<rect x="9" y="432" width="135" height="18" fill="#0d0d12"/>
<rect x="144" y="432" width="9" height="18" fill="#0d0d12"/>
<text x="144" y="446" fill="#1b1d29">│</text>
<rect x="153" y="432" width="9" height="18" fill="#0d0d12"/>
<text x="153" y="446" fill="#6d4b34">│</text>
<rect x="162" y="432" width="729" height="18" fill="#0d0d12"/>
<rect x="891" y="432" width="9" height="18" fill="#0d0d12"/>
<text x="891" y="446" fill="#6d4b34">│</text>
<rect x="0" y="450" width="9" height="18" fill="#0d0d12"/>
<text x="0" y="464" fill="#1b1d29">│</text>
<rect x="9" y="450" width="135" height="18" fill="#0d0d12"/>
<rect x="144" y="450" width="9" height="18" fill="#0d0d12"/>
<text x="144" y="464" fill="#1b1d29">│</text>
<rect x="153" y="450" width="9" height="18" fill="#0d0d12"/>
<text x="153" y="464" fill="#6d4b34">│</text>
<rect x="162" y="450" width="729" height="18" fill="#0d0d12"/>
<rect x="891" y="450" width="9" height="18" fill="#0d0d12"/>
<text x="891" y="464" fill="#6d4b34">│</text>
<rect x="0" y="468" width="9" height="18" fill="#0d0d12"/>
<text x="0" y="482" fill="#1b1d29">│</text>
<rect x="9" y="468" width="135" height="18" fill="#0d0d12"/>
<rect x="144" y="468" width="9" height="18" fill="#0d0d12"/>
<text x="144" y="482" fill="#1b1d29">│</text>
<rect x="153" y="468" width="9" height="18" fill="#0d0d12"/>
<text x="153" y="482" fill="#6d4b34">│</text>
<rect x="162" y="468" width="729" height="18" fill="#0d0d12"/>
<rect x="891" y="468" width="9" height="18" fill="#0d0d12"/>
<text x="891" y="482" fill="#6d4b34">│</text>
<rect x="0" y="486" width="9" height="18" fill="#0d0d12"/>
<text x="0" y="500" fill="#1b1d29">│</text>
<rect x="9" y="486" width="135" height="18" fill="#0d0d12"/>
<rect x="144" y="486" width="9" height="18" fill="#0d0d12"/>
<text x="144" y="500" fill="#1b1d29">│</text>
<rect x="153" y="486" width="9" height="18" fill="#0d0d12"/>
<text x="153" y="500" fill="#6d4b34">│</text>
<rect x="162" y="486" width="729" height="18" fill="#0d0d12"/>
<rect x="891" y="486" width="9" height="18" fill="#0d0d12"/>
<text x="891" y="500" fill="#6d4b34">│</text>
<rect x="0" y="504" width="153" height="18" fill="#0d0d12"/>
<text x="0 9 18 27 36 45 54 63 72 81 90 99 108 117 126 135 144" y="518" fill="#1b1d29">╰───────────────╯</text>
<rect x="153" y="504" width="747" height="18" fill="#0d0d12"/>
<text x="153 162 171 180 189 198 207 216 225 234 243 252 261 270 279 288 297 306 315 324 342 351 360 369 378 396 405 414 423 432 441 450 468 486 504 513 522 531 540 558 567 576 585 603 621 639 648 657 666 675 684 693 711 720 729 738 747 756 765 774 783 792 801 810 819 828 837 846 855 864 873 882 891" y="518" fill="#6d4b34">╰───────────────────enterdetails·sstartwork·rrefresh────────────────────╯</text>
<rect x="0" y="522" width="36" height="18" fill="#12121a"/>
<text x="9 18 27" y="536" fill="#6d4b34">esc</text>
<rect x="36" y="522" width="54" height="18" fill="#12121a"/>
<text x="45 54 63 72" y="536" fill="#626369">back</text>
<rect x="90" y="522" width="27" height="18" fill="#12121a"/>
<text x="99 108" y="536" fill="#6d4b34">^W</text>
<rect x="117" y="522" width="108" height="18" fill="#12121a"/>
<text x="126 135 144 153 162 171 180 189 198 207" y="536" fill="#626369">workspaces</text>
<rect x="225" y="522" width="72" height="18" fill="#12121a"/>
<text x="234 243 252 261 270 279 288" y="536" fill="#6d4b34">alt+1-9</text>
<rect x="297" y="522" width="54" height="18" fill="#12121a"/>
<text x="306 315 324 333" y="536" fill="#626369">tabs</text>
<rect x="351" y="522" width="18" height="18" fill="#12121a"/>
<text x="360" y="536" fill="#6d4b34">t</text>
<rect x="369" y="522" width="63" height="18" fill="#12121a"/>
<text x="378 387 396 405 414" y="536" fill="#626369">timer</text>
<rect x="432" y="522" width="18" height="18" fill="#12121a"/>
<text x="441" y="536" fill="#6d4b34">q</text>
<rect x="450" y="522" width="54" height="18" fill="#12121a"/>
<text x="459 468 477 486" y="536" fill="#626369">quit</text>
<rect x="504" y="522" width="279" height="18" fill="#12121a"/>
<rect x="783" y="522" width="18" height="18" fill="#12121a"/>
<text x="783" y="536" fill="#282935">│</text>
<rect x="801" y="522" width="9" height="18" fill="#12121a"/>
<text x="801" y="536" fill="#6d4b34">:</text>
<rect x="810" y="522" width="90" height="18" fill="#12121a"/>
<text x="819 828 837 846 855 864 873 882" y="536" fill="#626369">commands</text>
</svg>
